<svg id="Слой_1" data-name="Слой 1" xmlns="http://www.w3.org/2000/svg" viewBox="0 0 268.42 218.02">
  <defs>
    <style>
      .cls-1 {
        fill: #6b3833;
      }

      .cls-2, .cls-7 {
        fill: #f5ad5d;
      }

      .cls-10, .cls-11, .cls-2, .cls-22, .cls-3, .cls-5, .cls-7 {
        stroke: #683c11;
      }

      .cls-10, .cls-11, .cls-14, .cls-15, .cls-2, .cls-20, .cls-22, .cls-3, .cls-5, .cls-7, .cls-9 {
        stroke-linecap: round;
        stroke-linejoin: round;
      }

      .cls-3 {
        fill: #f7d3d4;
      }

      .cls-14, .cls-20, .cls-4, .cls-5, .cls-9 {
        fill: #fff;
      }

      .cls-6 {
        fill: #f08a8d;
      }

      .cls-7 {
        stroke-width: 0.25px;
      }

      .cls-15, .cls-8 {
        fill: #322626;
      }

      .cls-13, .cls-14, .cls-15, .cls-16, .cls-17, .cls-8 {
        stroke: #1d1d1b;
      }

      .cls-12, .cls-13, .cls-16, .cls-17, .cls-8 {
        stroke-miterlimit: 10;
      }

      .cls-9 {
        stroke: #000;
      }

      .cls-10 {
        fill: #e8e9f0;
        stroke-width: 2px;
      }

      .cls-11 {
        fill: #f08a8c;
      }

      .cls-12 {
        fill: none;
        stroke: #fff;
      }

      .cls-13 {
        fill: #7f5548;
      }

      .cls-16, .cls-18 {
        fill: #1d1d1b;
      }

      .cls-17 {
        fill: #c4837e;
      }

      .cls-19 {
        fill: #1b1314;
      }

      .cls-20 {
        stroke: #0f0505;
      }

      .cls-21 {
        font-size: 30.75px;
        fill: #3a3a3a;
        font-family: AmaticSC-Bold, Amatic SC;
        font-weight: 700;
      }

      .cls-22 {
        fill: #fafafa;
      }
    </style>
  </defs>
  <title>CorgiAndBoston</title>
  <g>
    <circle class="cls-1" cx="133.68" cy="100.52" r="100.52"/>
    <path class="cls-2" d="M74.84,97.31S67.43,87.9,68.21,70,81.67,58.43,81.67,58.43s10.74,6,16.39,13.89C98.06,72.32,90.55,84.11,74.84,97.31Z" transform="translate(-7.52 -36.47)"/>
    <path class="cls-2" d="M121,71s11.68-14.45,21.11-13.63,7.38,16.83,7.38,16.83A68,68,0,0,1,144,94.66S132.66,84.19,121,71Z" transform="translate(-7.52 -36.47)"/>
    <path class="cls-3" d="M77,90.43s-7.41-10.57-4.43-23.3,14.81,0,14.81,0,5.06,5.15,5.87,7S77,90.43,77,90.43Z" transform="translate(-7.52 -36.47)"/>
    <path class="cls-3" d="M125.43,72.54s9.25-13.07,16.3-10.13,2.58,22.78,2.58,22.78-2.28,6.91-3.83,8.45S124.34,76.58,125.43,72.54Z" transform="translate(-7.52 -36.47)"/>
    <path class="cls-2" d="M70,120.13s1.71-25.59,6.13-33.25C80,80.27,85,72.32,99.44,70.33a80,80,0,0,1,9-.36,79.46,79.46,0,0,1,11.31.63c.94.11,10.87,2.54,16.8,10a49.29,49.29,0,0,1,9,19.57s3.11,14.57,2.66,21.25S69.45,122.83,70,120.13Z" transform="translate(-7.52 -36.47)"/>
    <path class="cls-4" d="M102.08,70.62s2.18,8,1.39,12.59,10.38,0,10.38,0-1.25-8.72,2-12.49c0,0-3.62-.34-7.46-.31A56.25,56.25,0,0,0,102.08,70.62Z" transform="translate(-7.52 -36.47)"/>
    <path class="cls-5" d="M69.59,121.1s3.3-20.39,21.29-23.79a10.84,10.84,0,0,0,6-6.43c1.42-4.69,5-9,12.08-9s10.72,5.83,10.72,5.83,4,7.73,7.48,9.63,11,3.91,15,8,6.1,16.51,6.1,16.51Z" transform="translate(-7.52 -36.47)"/>
    <path class="cls-5" d="M133.22,121s-5.09-18.71,3.68-14.21c0,0,0-10.32,7.26-3.78,0,0,5.1-6.46,6.29,3.11,0,0,4.31-7.57,4.63,14.34S133.22,121,133.22,121Z" transform="translate(-7.52 -36.47)"/>
    <path class="cls-1" d="M102.68,83.6s-4.47,3.56-.6,8.7,7.68,4.25,7.68,4.25A8.81,8.81,0,0,0,116.33,90c1.61-5.72-4.78-7.9-4.78-7.9A14,14,0,0,0,102.68,83.6Z" transform="translate(-7.52 -36.47)"/>
    <path class="cls-6" d="M138.47,115s3.59-7.69,9.73-1.41S134.84,120.33,138.47,115Z" transform="translate(-7.52 -36.47)"/>
    <path class="cls-1" d="M90.69,103.14c2,1.75,5.64,3.38,11.39-1,0,0,2.91-3.09,6-2.91l.73-6.4,1,6.45a8.61,8.61,0,0,1,6.86,3.91c2.5,4,9.69,1.22,9.69,1.22A10.8,10.8,0,0,1,120,114.52c-6.81,3.27-18.63,2.41-21.94.37s-7.46-4.9-7.41-11.13Z" transform="translate(-7.52 -36.47)"/>
    <circle class="cls-1" cx="86.93" cy="49.07" r="3.16"/>
    <circle class="cls-4" cx="87.91" cy="47.91" r="0.98"/>
    <circle class="cls-1" cx="115.83" cy="49.07" r="3.16"/>
    <circle class="cls-4" cx="116.85" cy="47.91" r="0.84"/>
    <circle class="cls-6" cx="129.35" cy="74.23" r="1.73"/>
    <circle class="cls-6" cx="133.55" cy="69.93" r="1.89"/>
    <circle class="cls-6" cx="139.58" cy="70.48" r="1.62"/>
    <circle class="cls-6" cx="144.04" cy="73.56" r="1.47"/>
    <path class="cls-7" d="M108.75,71.43" transform="translate(-7.52 -36.47)"/>
    <path class="cls-7" d="M108.42,71.6" transform="translate(-7.52 -36.47)"/>
    <path class="cls-7" d="M108.42,71.6" transform="translate(-7.52 -36.47)"/>
    <path class="cls-7" d="M108.11,71.4" transform="translate(-7.52 -36.47)"/>
    <path class="cls-2" d="M97.61,182.79s-4,24.1-3.45,43.43c1.65,58.18,40.2,15.79,18.08-43.17C101.2,153.63,97.61,182.79,97.61,182.79Z" transform="translate(-7.52 -36.47)"/>
    <path class="cls-2" d="M70,153.59S72.6,183,102.08,183.05s37.17-11.92,41.18-29.39S70,153.59,70,153.59Z" transform="translate(-7.52 -36.47)"/>
    <path class="cls-5" d="M117.9,181.64s-4.72,12.88,3.22,11.91c0,0,.35,6.78,6.25,3.15,0,0,4.41,5.4,5.41-2.63,0,0,6.06,4.65,3.93-12.06C134.38,163.76,117.9,181.64,117.9,181.64Z" transform="translate(-7.52 -36.47)"/>
    <path class="cls-5" d="M87.41,153.26s.28,13.1,13.9,12.91,21.82-3.78,24.06-12.61S87.41,153.26,87.41,153.26Z" transform="translate(-7.52 -36.47)"/>
    <path class="cls-8" d="M153.13,159s-2.48,16.52,18.91,22.43,32.69-7.49,35-14S168.69,136.05,153.13,159Z" transform="translate(-7.52 -36.47)"/>
    <path class="cls-9" d="M168,157.34s-1.06,10.6,12.39,11.15,13.55-10.34,13.55-10.34S170,150.61,168,157.34Z" transform="translate(-7.52 -36.47)"/>
    <path class="cls-10" d="M20.19,134.71S-11.2,107.73,35,89.07c0,0,11-6.85,32.84,25.24,0,0,4.24,7.74,51.68,6.58,0,0,54,1.92,70.22.55s41.94-23,41.94-23,38.69-13.71,43.24,17c0,0,2.6,20.85-25.68,24.69,0,0-7.67-1.29,15.34,15.31,0,0,13.52,12.1-15.56,29,0,0-19.79,6.81-48.56-21.06,0,0-4.84-7.14-58.07-6.4,0,0-33.43-.64-60.53.51,0,0-9.93-1.09-41.25,19.45,0,0-23.36,12.29-29.42-9.72S10.13,151.36,20.19,134.71Z" transform="translate(-7.52 -36.47)"/>
    <path class="cls-5" d="M63.77,117.1s-1.05-10.41,12.39-10.31S87.25,120,87.25,120,86,127.5,81,121.82c0,0-4,10-9.53,1.08C71.43,122.9,62.72,131.59,63.77,117.1Z" transform="translate(-7.52 -36.47)"/>
    <path class="cls-11" d="M109,114.89s2.18-6.91-6.3-5.8c-10.45,1.36-3.41,14.72-3.41,14.72s6.35,8.49,17.35.85c10.39-7.22-.77-15.2-.77-15.2S110,107.09,109,114.89Z" transform="translate(-7.52 -36.47)"/>
    <path class="cls-5" d="M93.47,182.05s3.16,10.91-4,11.16c0,0-1.7,6.8-6.28,1.78,0,0-4.76,5.75-5.7-2.32,0,0-7.06,4-3.54-10.19C78.5,164.31,93.47,182.05,93.47,182.05Z" transform="translate(-7.52 -36.47)"/>
    <path class="cls-12" d="M172.23,121.21s-13.73-3.3-17.85-15.14c0,0-2.93-4.74,2.73-11.95,0,0-4.7-14.15,15.06-19.26s28.73,5.07,28.73,5.07,11.35,8,6.45,14.74c0,0,10.66,11.31-3.94,19.65,0,0-8.71,7.07-12.86,8.09C190.55,122.41,182.66,133.22,172.23,121.21Z" transform="translate(-7.52 -36.47)"/>
    <path class="cls-8" d="M172.62,76.14s-8.69-19.46-18.6-22.6-3.75,35.66,4,38.11C162.68,93.1,172.62,76.14,172.62,76.14Z" transform="translate(-7.52 -36.47)"/>
    <path class="cls-13" d="M167.25,77.37s-3.46-15.08-10.81-15.1c-9,0,2.51,25.18,2.51,25.18Z" transform="translate(-7.52 -36.47)"/>
    <path class="cls-8" d="M192.18,76.39s13-21.22,22.31-21.54,1.54,30.73-7.66,36.68C199.91,96,192.18,76.39,192.18,76.39Z" transform="translate(-7.52 -36.47)"/>
    <path class="cls-13" d="M196.52,78.48S205,63.91,209.6,63c9.1-1.85-1.65,20.27-4.21,24.75S196.52,78.48,196.52,78.48Z" transform="translate(-7.52 -36.47)"/>
    <path class="cls-14" d="M172.17,74.86s9.62,8.5,4,20.44,12.7-.47,12.7-.47-5.41-9.44,4.09-19.9A35.35,35.35,0,0,0,172.17,74.86Z" transform="translate(-7.52 -36.47)"/>
    <path class="cls-15" d="M172.17,74.86s-18.89,3.83-15.34,19.3c0,0-2.28,3.29-2.67,5.07s5.52,13.22,14,4.47c0,0,3.67-8.26,8.12-8.62C176.3,95.08,182.26,86.47,172.17,74.86Z" transform="translate(-7.52 -36.47)"/>
    <path class="cls-15" d="M193.08,75s-9.15,7-4,19.85c0,0,7.55,4.86,7.29,9.16s13.69,5.67,13.49-5.86c0,0-1.91-3.33-2.33-3.46S215.36,86.74,193.08,75Z" transform="translate(-7.52 -36.47)"/>
    <path class="cls-14" d="M154.16,99.23s3.36,13.55,14,4.47c0,0,2.23-7,8.38-9.22s12.95.77,12.95.77,6.65,4,6.69,9.12,13.53,3.87,13.62-6.24c0,0,5.91,9.38-6.5,17.48,0,0-9.12,6.28-12.77,6.8,0,0-7.24,11.11-18.32-1.2,0,0-9.43-1-15.21-8.9S154.16,99.23,154.16,99.23Z" transform="translate(-7.52 -36.47)"/>
    <path class="cls-16" d="M163.66,112.08s12,6.59,18.28-1.61l.35-3,.42,3.08s8.51,7,16.67,2.65C199.38,113.24,182.87,131.5,163.66,112.08Z" transform="translate(-7.52 -36.47)"/>
    <path class="cls-17" d="M176.64,114.18s-5.61,18.11,5.94,18.09c10.43,0,8.23-13.35,7.11-18.2a29.48,29.48,0,0,1-7.33-3.7l-.2.25A11.56,11.56,0,0,1,176.64,114.18Z" transform="translate(-7.52 -36.47)"/>
    <circle class="cls-4" cx="159.67" cy="58.84" r="3.22"/>
    <circle class="cls-18" cx="160.67" cy="58.61" r="1.84"/>
    <circle class="cls-4" cx="188.69" cy="58.29" r="3.22"/>
    <circle class="cls-18" cx="189.69" cy="58.06" r="1.84"/>
    <path class="cls-19" d="M183.4,107.44c2.3-.67,7.61-2.71,6.26-7.09a4.12,4.12,0,0,0-2.1-2.39c-2.37-1.23-7.35-3.19-10.79-.31-4.67,3.91-1.74,6,.52,7.92a9.11,9.11,0,0,0,3.92,1.94A4.4,4.4,0,0,0,183.4,107.44Z" transform="translate(-7.52 -36.47)"/>
    <path class="cls-20" d="M149.47,123.88s1.4-7,6.88-8.54c0,0,2.21-.5,2.25,1,0,0,3.16-2.25,4.64,1.33,0,0,4.47-2.88,5.51,4.2s-.7,7.42-1.53,7.66-2.92-.85-3.64-1.77c0,0-5.4,4.58-9.26-1.62C154.32,126.1,148.77,128.85,149.47,123.88Z" transform="translate(-7.52 -36.47)"/>
    <path class="cls-20" d="M155.11,187.55s.81-6.9,5.24-10.27a5.49,5.49,0,0,1,2.71-1.2s2.66.72,4.55,1.25c0,0,3.66.63,5.29,5.29,3.3,9.46-.45,8.8-1.27,9.23s-2.94-.46-3.68-1.41c0,0-5,8.39-7.2.24C160.75,190.68,154.58,193.48,155.11,187.55Z" transform="translate(-7.52 -36.47)"/>
    <path class="cls-20" d="M205.57,188.53s-.8-6.9-5.23-10.27a5.49,5.49,0,0,0-2.71-1.2l-4.55,1.24s-3.66.64-5.29,5.3c-3.3,9.45.45,8.79,1.27,9.23s2.94-.46,3.68-1.42c0,0,5,8.4,7.2.25C199.94,191.66,206.11,194.46,205.57,188.53Z" transform="translate(-7.52 -36.47)"/>
    <path class="cls-20" d="M195.2,127.42s-1.53-7,2.85-10.6c0,0,1.81-1.35,2.44,0,0,0,2-3.34,4.78-.66,0,0,2.92-4.44,6.73,1.61s2.37,7.07,1.71,7.63-3,.41-4.05-.15c0,0-3.08,6.37-9.12,2.26C200.54,127.48,196.57,132.24,195.2,127.42Z" transform="translate(-7.52 -36.47)"/>
    <text class="cls-21" transform="matrix(1.28, 0.04, -0.03, 1, 77.09, 116.91)"></text>
    <path class="cls-22" d="M96.47,243.91s.09-10.55,11.62-3.45S101.86,264.91,96.47,243.91Z" transform="translate(-7.52 -36.47)"/>
  </g>
</svg>
